<svg width="117" height="24" viewBox="0 0 117 24" fill="none" xmlns="http://www.w3.org/2000/svg">
<path d="M116.979 17.7384C116.825 18.7915 115.858 19.6449 114.822 19.6449C113.786 19.6449 113.074 18.7915 113.228 17.7384C113.382 16.6853 114.349 15.8318 115.384 15.8318C116.42 15.8318 117.133 16.6853 116.979 17.7384Z" fill="#A9FFA9"/>
<path d="M57.0813 3.61345C56.9273 4.66656 55.9607 5.52 54.9248 5.52C53.8889 5.52 53.1765 4.66656 53.3305 3.61345C53.4845 2.56035 54.4511 1.70691 55.487 1.70691C56.5229 1.70691 57.2354 2.56035 57.0813 3.61345Z" fill="#A9FFA9"/>
<path d="M49.3251 17.1276C48.9438 17.707 48.4548 18.1925 47.8502 18.58C47.2494 18.9676 46.5486 19.2573 45.7514 19.4491C44.9543 19.6449 44.0878 19.7388 43.1559 19.7388H35.2422L37.7376 2.79917H45.4587C47.1724 2.79917 48.4509 3.19457 49.3097 3.98538C50.1684 4.77618 50.4996 5.84103 50.3032 7.17992L50.2955 7.2269C50.2224 7.71234 50.103 8.13906 49.9297 8.51098C49.7564 8.88289 49.5484 9.21957 49.3058 9.5171C49.0632 9.81463 48.7975 10.0769 48.5087 10.304C48.2122 10.5311 47.9041 10.7268 47.5806 10.8834C48.4856 11.2553 49.171 11.7603 49.6332 12.3985C50.0914 13.0366 50.2378 13.9174 50.0722 15.0488L50.0645 15.0958C49.9489 15.8709 49.7063 16.5482 49.3289 17.1276H49.3251ZM46.5909 7.81413C46.6756 7.25039 46.5331 6.81584 46.1635 6.51831C45.7899 6.22077 45.22 6.07201 44.4421 6.07201H40.8222L40.2946 9.65412H43.6719C44.4845 9.65412 45.1468 9.51319 45.6628 9.23132C46.1827 8.94944 46.4869 8.4914 46.5794 7.86502L46.5871 7.81804L46.5909 7.81413ZM46.5177 14.5869C46.6025 14.0231 46.4523 13.5729 46.071 13.2441C45.6936 12.9113 45.0274 12.7469 44.0762 12.7469H39.8402L39.2895 16.4738H43.6449C44.4536 16.4738 45.1083 16.3251 45.6128 16.0236C46.1211 15.7261 46.4176 15.2641 46.51 14.6338L46.5177 14.583V14.5869Z" fill="#A9FFA9"/>
<path d="M51.0244 19.7427L52.9345 6.77275H56.5544L54.6443 19.7427H51.0244Z" fill="#A9FFA9"/>
<path d="M70.2948 16.1488C69.8442 16.9788 69.3128 17.6795 68.6966 18.255C68.0805 18.8266 67.4027 19.2572 66.6633 19.5469C65.9201 19.8366 65.1692 19.9815 64.4067 19.9815C63.4401 19.9815 62.6699 19.7896 62.1 19.406C61.53 19.0223 61.0679 18.5721 60.7136 18.0632L59.8972 23.6145H56.2773L58.7574 6.77268H62.3772L62.1038 8.61658C62.6391 8.00978 63.2475 7.50867 63.9292 7.11718C64.6146 6.7257 65.431 6.52995 66.3861 6.52995C67.1331 6.52995 67.834 6.6748 68.4887 6.9645C69.1433 7.25812 69.6979 7.68876 70.1561 8.26033C70.6067 8.8319 70.9379 9.53266 71.142 10.3665C71.3461 11.1965 71.3653 12.1517 71.2036 13.2322L71.1959 13.2792C71.038 14.3597 70.7376 15.3189 70.2871 16.1488H70.2948ZM67.5991 13.2322C67.6761 12.6959 67.6646 12.2065 67.5645 11.7602C67.4643 11.3139 67.2949 10.9303 67.0561 10.6132C66.8212 10.2961 66.5247 10.0533 66.1781 9.88109C65.8315 9.70883 65.4426 9.62662 65.0151 9.62662C64.5877 9.62662 64.1756 9.71275 63.7751 9.88109C63.3746 10.0494 63.0126 10.2961 62.693 10.6132C62.3657 10.9303 62.0884 11.31 61.8535 11.7602C61.6224 12.2065 61.4646 12.6998 61.3875 13.2322L61.3798 13.2792C61.299 13.8155 61.3105 14.3088 61.4107 14.7551C61.5108 15.2014 61.6802 15.5851 61.9113 15.9022C62.1385 16.2193 62.4312 16.462 62.7777 16.6343C63.1243 16.8065 63.5133 16.8887 63.9407 16.8887C64.3682 16.8887 64.7802 16.8026 65.1807 16.6343C65.5812 16.4659 65.9471 16.2193 66.2744 15.9022C66.6094 15.5851 66.8867 15.2092 67.1177 14.7708C67.3488 14.3323 67.5067 13.8351 67.5914 13.2831L67.5991 13.2361V13.2322Z" fill="#A9FFA9"/>
<path d="M84.9582 15.9061C84.4846 16.7204 83.8954 17.4368 83.1868 18.0475C82.4782 18.6582 81.6772 19.1437 80.7838 19.4999C79.8904 19.8562 78.9469 20.0324 77.9457 20.0324C76.9444 20.0324 76.0741 19.8601 75.2847 19.5117C74.4952 19.1633 73.8406 18.6896 73.313 18.0828C72.7931 17.4799 72.4157 16.7713 72.1885 15.9531C71.9613 15.1388 71.9151 14.2658 72.0499 13.3301L72.0576 13.2792C72.1962 12.3435 72.5004 11.4666 72.9664 10.6562C73.4324 9.84585 74.0254 9.12552 74.734 8.5148C75.4426 7.90016 76.2436 7.41863 77.137 7.06238C78.0304 6.70612 78.9777 6.52995 79.979 6.52995C80.9802 6.52995 81.8505 6.70221 82.64 7.05063C83.4294 7.39906 84.0841 7.87276 84.604 8.47956C85.1238 9.08245 85.5012 9.79105 85.7323 10.6093C85.9595 11.4236 86.0057 12.3005 85.8709 13.2322L85.8632 13.2792C85.7246 14.2149 85.4204 15.0918 84.9544 15.9061H84.9582ZM82.2972 13.2792C82.3666 12.7977 82.355 12.3396 82.2587 11.9129C82.1625 11.4862 81.993 11.1064 81.735 10.7737C81.4847 10.4448 81.1651 10.1825 80.7838 9.98679C80.4026 9.79105 79.9597 9.69709 79.4706 9.69709C78.9469 9.69709 78.4694 9.78713 78.0342 9.97505C77.6029 10.163 77.2217 10.4174 76.8867 10.7384C76.5516 11.0595 76.2821 11.4353 76.0703 11.8659C75.8546 12.2927 75.7121 12.7468 75.6428 13.2322L75.6351 13.2792C75.5619 13.7646 75.5735 14.2188 75.6698 14.6455C75.766 15.0722 75.9432 15.452 76.1935 15.7808C76.4438 16.1136 76.7634 16.3759 77.137 16.5677C77.5105 16.7595 77.9534 16.8574 78.4617 16.8574C78.97 16.8574 79.4629 16.7674 79.8943 16.5794C80.3294 16.3954 80.7107 16.1371 81.0418 15.816C81.3769 15.495 81.6503 15.1192 81.8659 14.6886C82.0777 14.2618 82.2241 13.8038 82.2934 13.3223L82.3011 13.2714L82.2972 13.2792Z" fill="#A9FFA9"/>
<path d="M86.5137 19.7427L89.1169 2.07877H92.7368L90.1336 19.7427H86.5137Z" fill="#A9FFA9"/>
<path d="M99.8193 19.7427L100.027 18.3411C99.5074 18.8422 98.9143 19.2416 98.2558 19.5391C97.5935 19.8366 96.8156 19.9854 95.926 19.9854C95.3253 19.9854 94.7669 19.8993 94.2624 19.7309C93.7541 19.5626 93.3305 19.3081 92.98 18.9714C92.6334 18.6348 92.3831 18.2159 92.2252 17.7265C92.0674 17.2332 92.0366 16.6656 92.1328 16.0196L92.1405 15.9726C92.2445 15.2601 92.4602 14.6494 92.7875 14.1326C93.1187 13.6159 93.5346 13.1892 94.0352 12.8486C94.5397 12.5119 95.1135 12.2535 95.7643 12.0852C96.4151 11.9168 97.1236 11.8307 97.8861 11.8307C98.5331 11.8307 99.0953 11.8777 99.5651 11.9756C100.035 12.0734 100.489 12.1987 100.925 12.3631L100.955 12.1439C101.071 11.3687 100.925 10.7815 100.524 10.3783C100.124 9.97505 99.4727 9.77539 98.5639 9.77539C97.8669 9.77539 97.243 9.83803 96.6962 9.95548C96.1455 10.0768 95.5602 10.2491 94.9402 10.4762L94.4472 7.66919C95.1866 7.36383 95.9568 7.11328 96.7463 6.91753C97.5357 6.7257 98.4715 6.62783 99.5497 6.62783C101.533 6.62783 102.908 7.12111 103.666 8.10374C104.421 9.08637 104.675 10.4605 104.417 12.2183L103.308 19.7466H99.8116L99.8193 19.7427ZM100.659 14.5163C100.362 14.3715 100.027 14.254 99.6499 14.164C99.2763 14.0778 98.8681 14.0309 98.4214 14.0309C97.6435 14.0309 97.012 14.1875 96.519 14.4928C96.03 14.8021 95.745 15.2445 95.6564 15.8239L95.6487 15.8709C95.5756 16.372 95.6988 16.7595 96.0223 17.0336C96.3458 17.3076 96.804 17.4446 97.3894 17.4446C98.2481 17.4446 98.9644 17.2332 99.542 16.8143C100.12 16.3954 100.459 15.8474 100.559 15.1701L100.655 14.5163H100.659Z" fill="#A9FFA9"/>
<path d="M114.125 10.3744C112.92 10.3744 111.915 10.7464 111.114 11.4902C110.317 12.2301 109.801 13.385 109.57 14.9509L108.865 19.7427H105.245L107.155 6.77276H110.775L110.39 9.3879C110.887 8.49922 111.491 7.79063 112.208 7.2582C112.916 6.72578 113.81 6.48306 114.88 6.53004L114.314 10.3784H114.125V10.3744Z" fill="#A9FFA9"/>
<path d="M116.979 17.7384C116.825 18.7915 115.858 19.6449 114.822 19.6449C113.786 19.6449 113.074 18.7915 113.228 17.7384C113.382 16.6853 114.349 15.8318 115.384 15.8318C116.42 15.8318 117.133 16.6853 116.979 17.7384Z" fill="#A9FFA9"/>
<path d="M57.0813 3.61345C56.9273 4.66656 55.9607 5.52 54.9248 5.52C53.8889 5.52 53.1765 4.66656 53.3305 3.61345C53.4845 2.56035 54.4511 1.70691 55.487 1.70691C56.5229 1.70691 57.2354 2.56035 57.0813 3.61345Z" fill="#A9FFA9"/>
<path d="M49.3251 17.1276C48.9438 17.707 48.4548 18.1925 47.8502 18.58C47.2494 18.9676 46.5486 19.2573 45.7514 19.4491C44.9543 19.6449 44.0878 19.7388 43.1559 19.7388H35.2422L37.7376 2.79917H45.4587C47.1724 2.79917 48.4509 3.19457 49.3097 3.98538C50.1684 4.77618 50.4996 5.84103 50.3032 7.17992L50.2955 7.2269C50.2224 7.71234 50.103 8.13906 49.9297 8.51098C49.7564 8.88289 49.5484 9.21957 49.3058 9.5171C49.0632 9.81463 48.7975 10.0769 48.5087 10.304C48.2122 10.5311 47.9041 10.7268 47.5806 10.8834C48.4856 11.2553 49.171 11.7603 49.6332 12.3985C50.0914 13.0366 50.2378 13.9174 50.0722 15.0488L50.0645 15.0958C49.9489 15.8709 49.7063 16.5482 49.3289 17.1276H49.3251ZM46.5909 7.81413C46.6756 7.25039 46.5331 6.81584 46.1635 6.51831C45.7899 6.22077 45.22 6.07201 44.4421 6.07201H40.8222L40.2946 9.65412H43.6719C44.4845 9.65412 45.1468 9.51319 45.6628 9.23132C46.1827 8.94944 46.4869 8.4914 46.5794 7.86502L46.5871 7.81804L46.5909 7.81413ZM46.5177 14.5869C46.6025 14.0231 46.4523 13.5729 46.071 13.2441C45.6936 12.9113 45.0274 12.7469 44.0762 12.7469H39.8402L39.2895 16.4738H43.6449C44.4536 16.4738 45.1083 16.3251 45.6128 16.0236C46.1211 15.7261 46.4176 15.2641 46.51 14.6338L46.5177 14.583V14.5869Z" fill="#A9FFA9"/>
<path d="M51.0244 19.7427L52.9345 6.77275H56.5544L54.6443 19.7427H51.0244Z" fill="#A9FFA9"/>
<path d="M70.2948 16.1488C69.8442 16.9788 69.3128 17.6795 68.6966 18.255C68.0805 18.8266 67.4027 19.2572 66.6633 19.5469C65.9201 19.8366 65.1692 19.9815 64.4067 19.9815C63.4401 19.9815 62.6699 19.7896 62.1 19.406C61.53 19.0223 61.0679 18.5721 60.7136 18.0632L59.8972 23.6145H56.2773L58.7574 6.77268H62.3772L62.1038 8.61658C62.6391 8.00978 63.2475 7.50867 63.9292 7.11718C64.6146 6.7257 65.431 6.52995 66.3861 6.52995C67.1331 6.52995 67.834 6.6748 68.4887 6.9645C69.1433 7.25812 69.6979 7.68876 70.1561 8.26033C70.6067 8.8319 70.9379 9.53266 71.142 10.3665C71.3461 11.1965 71.3653 12.1517 71.2036 13.2322L71.1959 13.2792C71.038 14.3597 70.7376 15.3189 70.2871 16.1488H70.2948ZM67.5991 13.2322C67.6761 12.6959 67.6646 12.2065 67.5645 11.7602C67.4643 11.3139 67.2949 10.9303 67.0561 10.6132C66.8212 10.2961 66.5247 10.0533 66.1781 9.88109C65.8315 9.70883 65.4426 9.62662 65.0151 9.62662C64.5877 9.62662 64.1756 9.71275 63.7751 9.88109C63.3746 10.0494 63.0126 10.2961 62.693 10.6132C62.3657 10.9303 62.0884 11.31 61.8535 11.7602C61.6224 12.2065 61.4646 12.6998 61.3875 13.2322L61.3798 13.2792C61.299 13.8155 61.3105 14.3088 61.4107 14.7551C61.5108 15.2014 61.6802 15.5851 61.9113 15.9022C62.1385 16.2193 62.4312 16.462 62.7777 16.6343C63.1243 16.8065 63.5133 16.8887 63.9407 16.8887C64.3682 16.8887 64.7802 16.8026 65.1807 16.6343C65.5812 16.4659 65.9471 16.2193 66.2744 15.9022C66.6094 15.5851 66.8867 15.2092 67.1177 14.7708C67.3488 14.3323 67.5067 13.8351 67.5914 13.2831L67.5991 13.2361V13.2322Z" fill="#A9FFA9"/>
<path d="M84.9582 15.9061C84.4846 16.7204 83.8954 17.4368 83.1868 18.0475C82.4782 18.6582 81.6772 19.1437 80.7838 19.4999C79.8904 19.8562 78.9469 20.0324 77.9457 20.0324C76.9444 20.0324 76.0741 19.8601 75.2847 19.5117C74.4952 19.1633 73.8406 18.6896 73.313 18.0828C72.7931 17.4799 72.4157 16.7713 72.1885 15.9531C71.9613 15.1388 71.9151 14.2658 72.0499 13.3301L72.0576 13.2792C72.1962 12.3435 72.5004 11.4666 72.9664 10.6562C73.4324 9.84585 74.0254 9.12552 74.734 8.5148C75.4426 7.90016 76.2436 7.41863 77.137 7.06238C78.0304 6.70612 78.9777 6.52995 79.979 6.52995C80.9802 6.52995 81.8505 6.70221 82.64 7.05063C83.4294 7.39906 84.0841 7.87276 84.604 8.47956C85.1238 9.08245 85.5012 9.79105 85.7323 10.6093C85.9595 11.4236 86.0057 12.3005 85.8709 13.2322L85.8632 13.2792C85.7246 14.2149 85.4204 15.0918 84.9544 15.9061H84.9582ZM82.2972 13.2792C82.3666 12.7977 82.355 12.3396 82.2587 11.9129C82.1625 11.4862 81.993 11.1064 81.735 10.7737C81.4847 10.4448 81.1651 10.1825 80.7838 9.98679C80.4026 9.79105 79.9597 9.69709 79.4706 9.69709C78.9469 9.69709 78.4694 9.78713 78.0342 9.97505C77.6029 10.163 77.2217 10.4174 76.8867 10.7384C76.5516 11.0595 76.2821 11.4353 76.0703 11.8659C75.8546 12.2927 75.7121 12.7468 75.6428 13.2322L75.6351 13.2792C75.5619 13.7646 75.5735 14.2188 75.6698 14.6455C75.766 15.0722 75.9432 15.452 76.1935 15.7808C76.4438 16.1136 76.7634 16.3759 77.137 16.5677C77.5105 16.7595 77.9534 16.8574 78.4617 16.8574C78.97 16.8574 79.4629 16.7674 79.8943 16.5794C80.3294 16.3954 80.7107 16.1371 81.0418 15.816C81.3769 15.495 81.6503 15.1192 81.8659 14.6886C82.0777 14.2618 82.2241 13.8038 82.2934 13.3223L82.3011 13.2714L82.2972 13.2792Z" fill="#A9FFA9"/>
<path d="M86.5137 19.7427L89.1169 2.07877H92.7368L90.1336 19.7427H86.5137Z" fill="#A9FFA9"/>
<path d="M99.8193 19.7427L100.027 18.3411C99.5074 18.8422 98.9143 19.2416 98.2558 19.5391C97.5935 19.8366 96.8156 19.9854 95.926 19.9854C95.3253 19.9854 94.7669 19.8993 94.2624 19.7309C93.7541 19.5626 93.3305 19.3081 92.98 18.9714C92.6334 18.6348 92.3831 18.2159 92.2252 17.7265C92.0674 17.2332 92.0366 16.6656 92.1328 16.0196L92.1405 15.9726C92.2445 15.2601 92.4602 14.6494 92.7875 14.1326C93.1187 13.6159 93.5346 13.1892 94.0352 12.8486C94.5397 12.5119 95.1135 12.2535 95.7643 12.0852C96.4151 11.9168 97.1236 11.8307 97.8861 11.8307C98.5331 11.8307 99.0953 11.8777 99.5651 11.9756C100.035 12.0734 100.489 12.1987 100.925 12.3631L100.955 12.1439C101.071 11.3687 100.925 10.7815 100.524 10.3783C100.124 9.97505 99.4727 9.77539 98.5639 9.77539C97.8669 9.77539 97.243 9.83803 96.6962 9.95548C96.1455 10.0768 95.5602 10.2491 94.9402 10.4762L94.4472 7.66919C95.1866 7.36383 95.9568 7.11328 96.7463 6.91753C97.5357 6.7257 98.4715 6.62783 99.5497 6.62783C101.533 6.62783 102.908 7.12111 103.666 8.10374C104.421 9.08637 104.675 10.4605 104.417 12.2183L103.308 19.7466H99.8116L99.8193 19.7427ZM100.659 14.5163C100.362 14.3715 100.027 14.254 99.6499 14.164C99.2763 14.0778 98.8681 14.0309 98.4214 14.0309C97.6435 14.0309 97.012 14.1875 96.519 14.4928C96.03 14.8021 95.745 15.2445 95.6564 15.8239L95.6487 15.8709C95.5756 16.372 95.6988 16.7595 96.0223 17.0336C96.3458 17.3076 96.804 17.4446 97.3894 17.4446C98.2481 17.4446 98.9644 17.2332 99.542 16.8143C100.12 16.3954 100.459 15.8474 100.559 15.1701L100.655 14.5163H100.659Z" fill="#A9FFA9"/>
<path d="M114.125 10.3744C112.92 10.3744 111.915 10.7464 111.114 11.4902C110.317 12.2301 109.801 13.385 109.57 14.9509L108.865 19.7427H105.245L107.155 6.77276H110.775L110.39 9.3879C110.887 8.49922 111.491 7.79063 112.208 7.2582C112.916 6.72578 113.81 6.48306 114.88 6.53004L114.314 10.3784H114.125V10.3744Z" fill="#A9FFA9"/>
<path d="M23.1316 0H8.9409C5.38263 0 2.05541 2.94007 1.52398 6.55742C1.23516 8.53052 1.85516 10.2844 3.04125 11.4863C1.50088 12.6881 0.36485 14.442 0.072178 16.4151C-0.459252 20.0324 2.0015 22.9725 5.55592 22.9725H7.83568C11.4094 22.9725 14.7481 20.0207 15.2834 16.3877L15.7648 13.1109H17.6633C17.6633 13.1109 17.6825 13.1188 17.6941 13.1188H21.1984C24.7567 13.1188 28.0839 10.1787 28.6154 6.56133C29.1468 2.94399 26.686 0.00391488 23.1316 0.00391488V0ZM8.44027 3.38245H13.874L13.4311 6.38908L13.4118 6.53002C13.15 8.29563 11.5249 9.7363 9.7881 9.7363H7.50835C5.78698 9.7363 4.59318 8.31129 4.8512 6.56133C5.10921 4.81138 6.7189 3.38637 8.44413 3.38637L8.44027 3.38245ZM11.96 16.3877C11.6982 18.1533 10.0731 19.594 8.3363 19.594H6.05654C4.33517 19.594 3.14138 18.1689 3.39939 16.419C3.65741 14.669 5.2671 13.244 6.99232 13.244H12.426L11.9639 16.3916L11.96 16.3877ZM21.6952 9.73239H18.1909C17.128 9.73239 16.3925 8.85154 16.5504 7.77103L17.1973 3.37854H22.631C24.3524 3.37854 25.5462 4.80355 25.2881 6.5535C25.0301 8.30346 23.4204 9.72847 21.6952 9.72847V9.73239Z" fill="#A9FFA9"/>
</svg>
